<?xml version="1.0" encoding="UTF-8"?>
<svg id="Warstwa_1" xmlns="http://www.w3.org/2000/svg" viewBox="0 0 37.63 39">
  <defs>
    <style>
      .cls-1 {
        fill: #fff;
      }

      .cls-2 {
        fill: #6fc8ef;
      }
    </style>
  </defs>
  <path class="cls-2" d="M37.63,25.45c-.84,1.09-.78,2.7-2.04,3.55-.12.08-.16.41-.11.59.32,2.51-3.73,1.5-4.59.12-1.76-2.09-3.92-.26-4.76,1.65-.78,1.35-1.67-1.19-3.12.34-.83.62-2.38-.53-2.4,1.03-.32,5.09,6.19.99,8.71,3.56,7.04,4.39-35.63,2.79-25.44-.09,2.65.51,5.32,1.7,7.98.6,1.53-1.14,4.96-.04,5.28-2.26.06-.88-.79-.88-1.37-.9-2.85.37-2.59-3.96-5.39-3.15-.87.15-1.46.64-1.43,1.64-.49,2.73-5.65.24-6.6-1.1-1.3-2.02.51-3.49-2.29-5.16-.49-3.68,2.91-3.46,2.73-5.92-.08-.7.19-1.1.95-.95,2.09.1-1.41-3.69,1.43-3.96,1.75-.35-.03-2.47,1.13-3.32,2.46-1.56.54-5.05,3.08-6.33.85-.9.98-2.47,2.65-2.19,2.46.11.96-2.6,4.27-1.31.53.12,1.06.12,1.16-.51.17-1.78,2.2.48,2.31-1.27,2.4-.7,3.08,2.73,5.25,2.46,2.33-.53,2.3,3.11,4.09,3.42,3.2-.15,4.2,5.51,1.65,7.22-.45.34-.28.75-.03,1.11.36.51.9.71,1.51.83,2.89.23,1.1,3.13,2.74,4.35.53.37,1.13.86.98,1.5-.78,2.17,1.43,2.86,1.68,4.47Z"/>
  <path class="cls-1" d="M22.11,15.22l7.04,1.89-1.89-7.04-1.68,1.68c-1.77-1.77-4.12-2.74-6.62-2.74-2.5,0-4.85.97-6.62,2.74-1.14,1.14-1.95,2.52-2.38,4.03h2.55c.35-.86.86-1.65,1.54-2.32,1.31-1.31,3.06-2.04,4.92-2.04,1.86,0,3.6.72,4.92,2.04l-1.77,1.77Z"/>
  <path class="cls-1" d="M9.06,19.7l1.89,7.04,1.73-1.73c1.77,1.77,4.12,2.74,6.62,2.74,2.5,0,4.85-.97,6.62-2.74,1.14-1.14,1.95-2.52,2.38-4.03h-2.55c-.35.86-.86,1.65-1.54,2.32-1.31,1.31-3.06,2.04-4.92,2.04-1.86,0-3.6-.72-4.92-2.04l1.72-1.72-7.04-1.89h0Z"/>
</svg>